<svg xmlns="http://www.w3.org/2000/svg" viewBox="0 0 209 183" width="209" height="183" role="img" aria-label="AutoFlow mark reversed"><path d="M0.0 0.0C5.5 -3.7 30.0 -3.2 37.0 0.0C44.0 3.2 39.7 13.0 42.0 19.0C44.3 25.0 44.0 30.0 51.0 36.0C58.0 42.0 77.0 51.2 84.0 55.0C91.0 58.8 91.3 58.0 93.0 59.0C94.7 60.0 102.0 56.3 94.0 61.0C86.0 65.7 53.2 84.0 45.0 87.0C36.8 90.0 46.3 80.8 45.0 79.0C43.7 77.2 39.8 78.0 37.0 76.0C34.2 74.0 31.5 71.3 28.0 67.0C24.5 62.7 20.0 57.5 16.0 50.0C12.0 42.5 6.7 30.3 4.0 22.0C1.3 13.7 -5.5 3.7 0.0 0.0Z" fill="#FFFFFF"></path><path d="M202.0 0.0C203.7 -2.7 207.8 -11.7 209.0 0.0C210.2 11.7 210.7 56.7 209.0 70.0C207.3 83.3 203.2 76.5 199.0 80.0C194.8 83.5 189.3 87.7 184.0 91.0C178.7 94.3 172.2 97.7 167.0 100.0C161.8 102.3 158.7 103.5 153.0 105.0C147.3 106.5 139.5 108.3 133.0 109.0C126.5 109.7 118.7 109.8 114.0 109.0C109.3 108.2 107.3 106.5 105.0 104.0C102.7 101.5 100.8 96.8 100.0 94.0C99.2 91.2 99.5 89.3 100.0 87.0C100.5 84.7 101.7 82.0 103.0 80.0C104.3 78.0 106.5 76.2 108.0 75.0C109.5 73.8 108.3 73.5 112.0 73.0C115.7 72.5 124.2 72.8 130.0 72.0C135.8 71.2 141.7 69.8 147.0 68.0C152.3 66.2 158.0 63.2 162.0 61.0C166.0 58.8 167.2 58.3 171.0 55.0C174.8 51.7 181.5 45.0 185.0 41.0C188.5 37.0 189.7 35.2 192.0 31.0C194.3 26.8 197.3 21.2 199.0 16.0C200.7 10.8 200.3 2.7 202.0 0.0Z" fill="#FFFFFF"></path><circle cx="48" cy="162" r="21" fill="#FFFFFF"></circle></svg>